<?xml version="1.0" encoding="UTF-8" standalone="no"?>
<svg
   xmlns:dc="http://purl.org/dc/elements/1.1/"
   xmlns:cc="http://creativecommons.org/ns#"
   xmlns:rdf="http://www.w3.org/1999/02/22-rdf-syntax-ns#"
   xmlns:svg="http://www.w3.org/2000/svg"
   xmlns="http://www.w3.org/2000/svg"
   xmlns:sodipodi="http://sodipodi.sourceforge.net/DTD/sodipodi-0.dtd"
   xmlns:inkscape="http://www.inkscape.org/namespaces/inkscape"
   version="1.1"
   x="0px"
   y="0px"
   viewBox="0 0 63.722 70.268997"
   enable-background="new 0 0 100 100"
   xml:space="preserve"
   id="svg3544"
   inkscape:version="0.91 r13725"
   sodipodi:docname="noun_510734_cc.svg"
   width="63.722"
   height="70.268997"><metadata
     id="metadata3564"><rdf:RDF><cc:Work
         rdf:about=""><dc:format>image/svg+xml</dc:format><dc:type
           rdf:resource="http://purl.org/dc/dcmitype/StillImage" /><dc:title></dc:title></cc:Work></rdf:RDF></metadata><defs
     id="defs3562" /><sodipodi:namedview
     pagecolor="#ffffff"
     bordercolor="#666666"
     borderopacity="1"
     objecttolerance="10"
     gridtolerance="10"
     guidetolerance="10"
     inkscape:pageopacity="0"
     inkscape:pageshadow="2"
     inkscape:window-width="1925"
     inkscape:window-height="948"
     id="namedview3560"
     showgrid="false"
     fit-margin-top="0"
     fit-margin-left="0"
     fit-margin-right="0"
     fit-margin-bottom="0"
     inkscape:zoom="13.312"
     inkscape:cx="38.61655"
     inkscape:cy="15.691728"
     inkscape:window-x="0"
     inkscape:window-y="23"
     inkscape:window-maximized="0"
     inkscape:current-layer="svg3544" /><g
     id="g3566"
     transform="matrix(0,1,-1,0,81.555,-14.579)"><path
       id="path3546"
       d="m 22.297,38.492 0,-19.224 c 0,-0.791 -0.767,-1.433 -1.713,-1.433 -0.945,0 -1.713,0.642 -1.713,1.433 l 0,19.225 c -2.481,0.738 -4.292,3.033 -4.292,5.754 0,2.721 1.811,5.015 4.292,5.753 l 0,30.122 c 0,0.79 0.768,1.433 1.713,1.433 0.946,0 1.713,-0.643 1.713,-1.433 l 0,-30.122 c 2.481,-0.738 4.292,-3.033 4.292,-5.754 0,-2.721 -1.811,-5.016 -4.292,-5.754 z m -1.713,8.459 c -1.491,0 -2.705,-1.214 -2.705,-2.705 0,-1.491 1.214,-2.705 2.705,-2.705 1.491,0 2.705,1.214 2.705,2.705 0,1.491 -1.214,2.705 -2.705,2.705 z"
       inkscape:connector-curvature="0" /><path
       id="path3548"
       d="m 36.861,49.387 0,-30.122 c 0,-0.79 -0.768,-1.432 -1.713,-1.432 -0.946,0 -1.713,0.642 -1.713,1.432 l 0,30.122 c -2.481,0.738 -4.292,3.033 -4.292,5.753 0,2.72 1.811,5.017 4.292,5.754 l 0,19.226 c 0,0.791 0.767,1.433 1.713,1.433 0.945,0 1.713,-0.642 1.713,-1.433 l 0,-19.225 c 2.481,-0.737 4.292,-3.033 4.292,-5.754 0,-2.721 -1.81,-5.016 -4.292,-5.754 z m -1.713,8.459 c -1.491,0 -2.705,-1.214 -2.705,-2.705 0,-1.49 1.214,-2.705 2.705,-2.705 1.491,0 2.705,1.215 2.705,2.705 0,1.491 -1.213,2.705 -2.705,2.705 z"
       inkscape:connector-curvature="0" /><path
       id="path3550"
       d="m 51.426,38.492 0,-19.224 c 0,-0.791 -0.767,-1.433 -1.713,-1.433 -0.945,0 -1.713,0.642 -1.713,1.433 l 0,19.225 c -2.481,0.738 -4.292,3.033 -4.292,5.754 0,2.721 1.811,5.015 4.292,5.753 l 0,30.122 c 0,0.79 0.768,1.433 1.713,1.433 0.946,0 1.713,-0.643 1.713,-1.433 l 0,-30.122 c 2.481,-0.738 4.292,-3.033 4.292,-5.754 0,-2.721 -1.811,-5.016 -4.292,-5.754 z m -1.713,8.459 c -1.491,0 -2.705,-1.214 -2.705,-2.705 0,-1.491 1.214,-2.705 2.705,-2.705 1.491,0 2.705,1.214 2.705,2.705 0,1.491 -1.214,2.705 -2.705,2.705 z"
       inkscape:connector-curvature="0" /><path
       id="path3552"
       d="m 65.99,28.492 0,-9.225 c 0,-0.791 -0.768,-1.433 -1.713,-1.433 -0.945,0 -1.713,0.642 -1.713,1.433 l 0,9.225 c -2.481,0.738 -4.293,3.033 -4.293,5.754 0,2.721 1.812,5.016 4.293,5.754 l 0,40.122 c 0,0.79 0.768,1.433 1.713,1.433 0.945,0 1.713,-0.643 1.713,-1.433 L 65.99,40 c 2.48,-0.738 4.292,-3.033 4.292,-5.754 0,-2.721 -1.809,-5.016 -4.292,-5.754 z m -1.713,8.459 c -1.491,0 -2.705,-1.214 -2.705,-2.705 0,-1.491 1.214,-2.705 2.705,-2.705 1.49,0 2.705,1.214 2.705,2.705 0,1.491 -1.212,2.705 -2.705,2.705 z"
       inkscape:connector-curvature="0" /><path
       id="path3554"
       d="m 80.555,59.387 0,-40.122 c 0,-0.79 -0.768,-1.432 -1.713,-1.432 -0.945,0 -1.713,0.642 -1.713,1.432 l 0,40.122 c -2.48,0.738 -4.292,3.033 -4.292,5.754 0,2.721 1.812,5.017 4.292,5.754 l 0,9.226 c 0,0.791 0.768,1.433 1.713,1.433 0.945,0 1.713,-0.642 1.713,-1.433 l 0,-9.226 c 2.481,-0.737 4.293,-3.033 4.293,-5.754 0,-2.721 -1.812,-5.016 -4.293,-5.754 z m -1.713,8.459 c -1.49,0 -2.705,-1.214 -2.705,-2.705 0,-1.49 1.215,-2.705 2.705,-2.705 1.491,0 2.705,1.215 2.705,2.705 0,1.491 -1.214,2.705 -2.705,2.705 z"
       inkscape:connector-curvature="0" /></g></svg>