<?xml version="1.0" encoding="UTF-8" standalone="no"?>
<!DOCTYPE svg PUBLIC "-//W3C//DTD SVG 1.0//EN" "http://www.w3.org/TR/2001/PR-SVG-20010719/DTD/svg10.dtd">
<svg width="40cm" height="11cm" viewBox="149 20 789 212" xmlns="http://www.w3.org/2000/svg" xmlns:xlink="http://www.w3.org/1999/xlink">
  <g>
    <rect style="fill: #ffffff" x="174" y="21.25" width="598" height="209"/>
    <rect style="fill: none; fill-opacity:0; stroke-width: 2; stroke: #000000" x="174" y="21.25" width="598" height="209"/>
  </g>
  <g>
    <rect style="fill: #ffffff" x="189" y="28" width="363" height="184.25"/>
    <rect style="fill: none; fill-opacity:0; stroke-width: 2; stroke: #000000" x="189" y="28" width="363" height="184.25"/>
  </g>
  <g>
    <ellipse style="fill: #ffffff" cx="239.43" cy="55.8793" rx="23.4304" ry="22.6993"/>
    <ellipse style="fill: none; fill-opacity:0; stroke-width: 2; stroke: #000000" cx="239.43" cy="55.8793" rx="23.4304" ry="22.6993"/>
    <text font-size="9.03111" style="fill: #000000;text-anchor:middle;font-family:monospace;font-style:normal;font-weight:normal" x="239.43" y="58.6349">
      <tspan x="239.43" y="58.6349">Temp</tspan>
    </text>
  </g>
  <text font-size="6.77333" style="fill: #000000;text-anchor:start;font-family:monospace;font-style:normal;font-weight:normal" x="319.694" y="95.4842">
    <tspan x="319.694" y="95.4842">correlation</tspan>
  </text>
  <g>
    <rect style="fill: #000000" x="150.918" y="50.8792" width="10" height="10"/>
    <rect style="fill: none; fill-opacity:0; stroke-width: 2; stroke: #000000" x="150.918" y="50.8792" width="10" height="10"/>
  </g>
  <text font-size="6.77333" style="fill: #000000;text-anchor:start;font-family:monospace;font-style:normal;font-weight:normal" x="149.918" y="46.243">
    <tspan x="149.918" y="46.243">CSV</tspan>
  </text>
  <g>
    <ellipse style="fill: #ffffff" cx="241.919" cy="177.826" rx="29.4989" ry="28.0003"/>
    <ellipse style="fill: none; fill-opacity:0; stroke-width: 2; stroke: #000000" cx="241.919" cy="177.826" rx="29.4989" ry="28.0003"/>
    <text font-size="9.03111" style="fill: #000000;text-anchor:middle;font-family:monospace;font-style:normal;font-weight:normal" x="241.919" y="174.937">
      <tspan x="241.919" y="174.937">Rain-</tspan>
      <tspan x="241.919" y="186.226">fall</tspan>
    </text>
  </g>
  <g>
    <ellipse style="fill: #ffffff" cx="421.539" cy="116.867" rx="33.1628" ry="32.5492"/>
    <ellipse style="fill: none; fill-opacity:0; stroke-width: 2; stroke: #000000" cx="421.539" cy="116.867" rx="33.1628" ry="32.5492"/>
    <text font-size="9.03111" style="fill: #000000;text-anchor:middle;font-family:monospace;font-style:normal;font-weight:normal" x="421.539" y="108.333">
      <tspan x="421.539" y="108.333">Temp/</tspan>
      <tspan x="421.539" y="119.622">Rain-</tspan>
      <tspan x="421.539" y="130.911">fall</tspan>
    </text>
  </g>
  <text font-size="6.77333" style="fill: #000000;text-anchor:start;font-family:monospace;font-style:normal;font-weight:normal" x="370.5" y="120.125">
    <tspan x="370.5" y="120.125"></tspan>
  </text>
  <text font-size="16.9333" style="fill: #000000;text-anchor:start;font-family:monospace;font-style:normal;font-weight:normal" x="504" y="204">
    <tspan x="504" y="204">City</tspan>
  </text>
  <g>
    <line style="fill: none; fill-opacity:0; stroke-width: 2; stroke: #888888" x1="161.922" y1="55.8792" x2="210.522" y2="55.8793"/>
    <polyline style="fill: none; fill-opacity:0; stroke-width: 2; stroke: #888888" points="206.758,58.8793 212.758,55.8793 206.758,52.8793 "/>
  </g>
  <g>
    <line style="fill: none; fill-opacity:0; stroke-width: 2; stroke: #888888" x1="259.433" y1="69.466" x2="319.532" y2="110.289"/>
    <polyline style="fill: none; fill-opacity:0; stroke-width: 2; stroke: #888888" points="314.733,110.656 321.382,111.546 318.104,105.693 "/>
  </g>
  <g>
    <line style="fill: none; fill-opacity:0; stroke-width: 2; stroke: #888888" x1="455.675" y1="116.867" x2="505.414" y2="116.867"/>
    <polyline style="fill: none; fill-opacity:0; stroke-width: 2; stroke: #888888" points="501.65,119.867 507.65,116.867 501.65,113.867 "/>
  </g>
  <g>
    <line style="fill: none; fill-opacity:0; stroke-width: 2; stroke: #888888" x1="266.493" y1="160.666" x2="319.56" y2="123.609"/>
    <polyline style="fill: none; fill-opacity:0; stroke-width: 2; stroke: #888888" points="318.192,128.224 321.394,122.329 314.757,123.304 "/>
  </g>
  <g>
    <line style="fill: none; fill-opacity:0; stroke-width: 2; stroke: #888888" x1="335.223" y1="116.867" x2="382.941" y2="116.867"/>
    <polyline style="fill: none; fill-opacity:0; stroke-width: 2; stroke: #888888" points="379.178,119.867 385.178,116.867 379.178,113.867 "/>
  </g>
  <text font-size="6.77333" style="fill: #000000;text-anchor:start;font-family:monospace;font-style:normal;font-weight:normal" x="545" y="223">
    <tspan x="545" y="223"></tspan>
  </text>
  <text font-size="16.9333" style="fill: #000000;text-anchor:start;font-family:monospace;font-style:normal;font-weight:normal" x="696" y="224">
    <tspan x="696" y="224">Country</tspan>
  </text>
  <g>
    <ellipse style="fill: #ffffff" cx="610.085" cy="116.867" rx="40.5071" ry="40.0666"/>
    <ellipse style="fill: none; fill-opacity:0; stroke-width: 2; stroke: #000000" cx="610.085" cy="116.867" rx="40.5071" ry="40.0666"/>
    <text font-size="9.03111" style="fill: #000000;text-anchor:middle;font-family:monospace;font-style:normal;font-weight:normal" x="610.085" y="113.978">
      <tspan x="610.085" y="113.978">Avg. Temp/</tspan>
      <tspan x="610.085" y="125.267">Rainfall</tspan>
    </text>
  </g>
  <g>
    <line style="fill: none; fill-opacity:0; stroke-width: 2; stroke: #888888" x1="521.877" y1="116.867" x2="564.113" y2="116.867"/>
    <polyline style="fill: none; fill-opacity:0; stroke-width: 2; stroke: #888888" points="560.349,119.867 566.349,116.867 560.349,113.867 "/>
  </g>
  <g>
    <ellipse style="fill: #ffffff" cx="834.912" cy="116.867" rx="39.9561" ry="39.9561"/>
    <ellipse style="fill: none; fill-opacity:0; stroke-width: 2; stroke: #000000" cx="834.912" cy="116.867" rx="39.9561" ry="39.9561"/>
    <text font-size="9.03111" style="fill: #000000;text-anchor:middle;font-family:monospace;font-style:normal;font-weight:normal" x="834.912" y="113.978">
      <tspan x="834.912" y="113.978">Avg. Temp/</tspan>
      <tspan x="834.912" y="125.267">Rainfall</tspan>
    </text>
  </g>
  <g>
    <line style="fill: none; fill-opacity:0; stroke-width: 2; stroke: #888888" x1="706.445" y1="116.867" x2="789.998" y2="116.867"/>
    <polyline style="fill: none; fill-opacity:0; stroke-width: 2; stroke: #888888" points="786.234,119.867 792.234,116.867 786.234,113.867 "/>
  </g>
  <g>
    <line style="fill: none; fill-opacity:0; stroke-width: 2; stroke: #888888" x1="651.585" y1="116.867" x2="690.157" y2="116.867"/>
    <polyline style="fill: none; fill-opacity:0; stroke-width: 2; stroke: #888888" points="686.393,119.867 692.393,116.867 686.393,113.867 "/>
  </g>
  <text font-size="6.77333" style="fill: #000000;text-anchor:start;font-family:monospace;font-style:normal;font-weight:normal" x="149.918" y="168.621">
    <tspan x="149.918" y="168.621">CSV</tspan>
  </text>
  <g>
    <line style="fill: none; fill-opacity:0; stroke-width: 2; stroke: #888888" x1="161.905" y1="177.825" x2="207.948" y2="177.825"/>
    <polyline style="fill: none; fill-opacity:0; stroke-width: 2; stroke: #888888" points="204.184,180.825 210.184,177.825 204.184,174.825 "/>
  </g>
  <text font-size="6.77333" style="fill: #000000;text-anchor:start;font-family:monospace;font-style:normal;font-weight:normal" x="692" y="104">
    <tspan x="692" y="104">Avg.</tspan>
  </text>
  <g>
    <ellipse style="fill: #ffffff" cx="668.485" cy="55.8794" rx="26.9148" ry="26.9148"/>
    <ellipse style="fill: none; fill-opacity:0; stroke-width: 2; stroke: #000000" cx="668.485" cy="55.8794" rx="26.9148" ry="26.9148"/>
    <text font-size="9.03111" style="fill: #000000;text-anchor:middle;font-family:monospace;font-style:normal;font-weight:normal" x="668.485" y="52.9905">
      <tspan x="668.485" y="52.9905">Avg.</tspan>
      <tspan x="668.485" y="64.2794">Temp</tspan>
    </text>
  </g>
  <g>
    <ellipse style="fill: #ffffff" cx="673.418" cy="177.826" rx="33.4184" ry="32.6745"/>
    <ellipse style="fill: none; fill-opacity:0; stroke-width: 2; stroke: #000000" cx="673.418" cy="177.826" rx="33.4184" ry="32.6745"/>
    <text font-size="9.03111" style="fill: #000000;text-anchor:middle;font-family:monospace;font-style:normal;font-weight:normal" x="673.418" y="169.292">
      <tspan x="673.418" y="169.292">Avg.</tspan>
      <tspan x="673.418" y="180.581">Rain-</tspan>
      <tspan x="673.418" y="191.87">fall</tspan>
    </text>
  </g>
  <text font-size="6.77333" style="fill: #000000;text-anchor:start;font-family:monospace;font-style:normal;font-weight:normal" x="476" y="44">
    <tspan x="476" y="44">Avg.</tspan>
  </text>
  <g>
    <line style="fill: none; fill-opacity:0; stroke-width: 2; stroke: #888888" x1="263.862" y1="55.8793" x2="471.777" y2="55.8792"/>
    <polyline style="fill: none; fill-opacity:0; stroke-width: 2; stroke: #888888" points="468.014,58.8792 474.014,55.8792 468.014,52.8792 "/>
  </g>
  <text font-size="6.77333" style="fill: #000000;text-anchor:start;font-family:monospace;font-style:normal;font-weight:normal" x="364" y="164">
    <tspan x="364" y="164">Avg.</tspan>
  </text>
  <g>
    <line style="fill: none; fill-opacity:0; stroke-width: 2; stroke: #888888" x1="272.424" y1="177.825" x2="358.29" y2="177.825"/>
    <polyline style="fill: none; fill-opacity:0; stroke-width: 2; stroke: #888888" points="354.526,180.825 360.526,177.825 354.526,174.825 "/>
  </g>
  <g>
    <line style="fill: none; fill-opacity:0; stroke-width: 2; stroke: #888888" x1="374.735" y1="177.825" x2="634.534" y2="177.826"/>
    <polyline style="fill: none; fill-opacity:0; stroke-width: 2; stroke: #888888" points="630.77,180.826 636.77,177.826 630.77,174.826 "/>
  </g>
  <g>
    <line style="fill: none; fill-opacity:0; stroke-width: 2; stroke: #888888" x1="488.163" y1="55.8792" x2="636.141" y2="55.8794"/>
    <polyline style="fill: none; fill-opacity:0; stroke-width: 2; stroke: #888888" points="632.377,58.8793 638.377,55.8794 632.377,52.8793 "/>
  </g>
  <text font-size="6.77333" style="fill: #000000;text-anchor:start;font-family:monospace;font-style:normal;font-weight:normal" x="722" y="42">
    <tspan x="722" y="42">Avg.</tspan>
  </text>
  <text font-size="6.77333" style="fill: #000000;text-anchor:start;font-family:monospace;font-style:normal;font-weight:normal" x="740" y="164">
    <tspan x="740" y="164">Avg.</tspan>
  </text>
  <g>
    <ellipse style="fill: #ffffff" cx="887.441" cy="55.8794" rx="26.9148" ry="26.9148"/>
    <ellipse style="fill: none; fill-opacity:0; stroke-width: 2; stroke: #000000" cx="887.441" cy="55.8794" rx="26.9148" ry="26.9148"/>
    <text font-size="9.03111" style="fill: #000000;text-anchor:middle;font-family:monospace;font-style:normal;font-weight:normal" x="887.441" y="52.9905">
      <tspan x="887.441" y="52.9905">Avg.</tspan>
      <tspan x="887.441" y="64.2794">Temp</tspan>
    </text>
  </g>
  <g>
    <ellipse style="fill: #ffffff" cx="904.44" cy="177.826" rx="33.4184" ry="32.6745"/>
    <ellipse style="fill: none; fill-opacity:0; stroke-width: 2; stroke: #000000" cx="904.44" cy="177.826" rx="33.4184" ry="32.6745"/>
    <text font-size="9.03111" style="fill: #000000;text-anchor:middle;font-family:monospace;font-style:normal;font-weight:normal" x="904.44" y="169.292">
      <tspan x="904.44" y="169.292">Avg.</tspan>
      <tspan x="904.44" y="180.581">Rain-</tspan>
      <tspan x="904.44" y="191.87">fall</tspan>
    </text>
  </g>
  <g>
    <line style="fill: none; fill-opacity:0; stroke-width: 2; stroke: #888888" x1="707.706" y1="177.825" x2="739.607" y2="177.825"/>
    <polyline style="fill: none; fill-opacity:0; stroke-width: 2; stroke: #888888" points="735.844,180.825 741.844,177.825 735.844,174.825 "/>
  </g>
  <g>
    <line style="fill: none; fill-opacity:0; stroke-width: 2; stroke: #888888" x1="756.08" y1="177.825" x2="865.551" y2="177.825"/>
    <polyline style="fill: none; fill-opacity:0; stroke-width: 2; stroke: #888888" points="861.788,180.825 867.788,177.825 861.788,174.825 "/>
  </g>
  <g>
    <line style="fill: none; fill-opacity:0; stroke-width: 2; stroke: #888888" x1="696.34" y1="55.8793" x2="720.977" y2="55.8792"/>
    <polyline style="fill: none; fill-opacity:0; stroke-width: 2; stroke: #888888" points="717.213,58.8792 723.213,55.8792 717.213,52.8792 "/>
  </g>
  <g>
    <line style="fill: none; fill-opacity:0; stroke-width: 2; stroke: #888888" x1="737.431" y1="55.8792" x2="855.073" y2="55.8793"/>
    <polyline style="fill: none; fill-opacity:0; stroke-width: 2; stroke: #888888" points="851.309,58.8793 857.309,55.8793 851.309,52.8793 "/>
  </g>
  <g>
    <rect style="fill: #000000" x="150.918" y="172.825" width="10" height="10"/>
    <rect style="fill: none; fill-opacity:0; stroke-width: 2; stroke: #000000" x="150.918" y="172.825" width="10" height="10"/>
  </g>
  <g>
    <rect style="fill: #000000" x="324.216" y="111.867" width="10" height="10"/>
    <rect style="fill: none; fill-opacity:0; stroke-width: 2; stroke: #000000" x="324.216" y="111.867" width="10" height="10"/>
  </g>
  <g>
    <rect style="fill: #000000" x="477.252" y="50.8792" width="10" height="10"/>
    <rect style="fill: none; fill-opacity:0; stroke-width: 2; stroke: #000000" x="477.252" y="50.8792" width="10" height="10"/>
  </g>
  <g>
    <rect style="fill: #000000" x="510.886" y="111.867" width="10" height="10"/>
    <rect style="fill: none; fill-opacity:0; stroke-width: 2; stroke: #000000" x="510.886" y="111.867" width="10" height="10"/>
  </g>
  <g>
    <rect style="fill: #000000" x="363.738" y="172.825" width="10" height="10"/>
    <rect style="fill: none; fill-opacity:0; stroke-width: 2; stroke: #000000" x="363.738" y="172.825" width="10" height="10"/>
  </g>
  <g>
    <rect style="fill: #000000" x="695.454" y="111.867" width="10" height="10"/>
    <rect style="fill: none; fill-opacity:0; stroke-width: 2; stroke: #000000" x="695.454" y="111.867" width="10" height="10"/>
  </g>
  <g>
    <rect style="fill: #000000" x="726.452" y="50.8792" width="10" height="10"/>
    <rect style="fill: none; fill-opacity:0; stroke-width: 2; stroke: #000000" x="726.452" y="50.8792" width="10" height="10"/>
  </g>
  <g>
    <rect style="fill: #000000" x="745.078" y="172.825" width="10" height="10"/>
    <rect style="fill: none; fill-opacity:0; stroke-width: 2; stroke: #000000" x="745.078" y="172.825" width="10" height="10"/>
  </g>
  <text font-size="6.77333" style="fill: #000000;text-anchor:start;font-family:monospace;font-style:normal;font-weight:normal" x="510.995" y="106.783">
    <tspan x="510.995" y="106.783">Avg.</tspan>
  </text>
</svg>
